<?xml version="1.0" encoding="UTF-8"?><svg id="_レイヤー_2" xmlns="http://www.w3.org/2000/svg" viewBox="0 0 480 120"><defs><style>.cls-1{letter-spacing:.1em;}.cls-2{font-family:KozGoPr6N-Bold-83pv-RKSJ-H, 'Kozuka Gothic Pr6N';font-size:27px;font-weight:700;}.cls-2,.cls-3{fill:#514977;}.cls-4{fill:none;stroke:#514977;stroke-miterlimit:10;stroke-width:3px;}.cls-5{letter-spacing:.03em;}.cls-6{letter-spacing:.09em;}.cls-7{letter-spacing:.09em;}.cls-8{fill:#fff;}.cls-9{letter-spacing:.11em;}.cls-10{letter-spacing:.09em;}.cls-11{letter-spacing:.09em;}.cls-12{letter-spacing:.13em;}.cls-13{letter-spacing:.11em;}.cls-14{letter-spacing:.07em;}.cls-15{letter-spacing:.12em;}.cls-16{letter-spacing:.13em;}.cls-17{letter-spacing:.04em;}.cls-18{letter-spacing:0em;}</style></defs><g id="img"><g><g><rect class="cls-8" x="0" width="480" height="120" rx="9.19" ry="9.19"/><path class="cls-3" d="m470.81,3c3.41,0,6.19,2.77,6.19,6.19v101.63c0,3.41-2.77,6.19-6.19,6.19H9.19c-3.41,0-6.19-2.77-6.19-6.19V9.19c0-3.41,2.77-6.19,6.19-6.19h461.63M470.81,0H9.19C4.13,0,0,4.13,0,9.19v101.63c0,5.05,4.13,9.19,9.19,9.19h461.63c5.05,0,9.19-4.13,9.19-9.19V9.19C480,4.13,475.87,0,470.81,0h0Z"/></g><polyline class="cls-4" points="440.57 47.05 453.52 60 440.57 72.95"/><text class="cls-2" transform="translate(169.89 54.05)"><tspan class="cls-12" x="0" y="0">ご</tspan><tspan class="cls-16" x="30.56" y="0">注</tspan><tspan class="cls-9" x="60.98" y="0">文</tspan><tspan class="cls-14" x="91.04" y="0">前</tspan><tspan class="cls-15" x="119.97" y="0">の</tspan><tspan class="cls-7" x="-69.87" y="37.64">お</tspan><tspan class="cls-1" x="-40.45" y="37.64">問</tspan><tspan class="cls-11" x="-10.88" y="37.64">い</tspan><tspan class="cls-13" x="18.42" y="37.64">合</tspan><tspan class="cls-6" x="48.37" y="37.64">わ</tspan><tspan class="cls-10" x="77.8" y="37.64">せ</tspan><tspan class="cls-17" x="107.11" y="37.64">は</tspan><tspan class="cls-18" x="135.22" y="37.64">こ</tspan><tspan class="cls-5" x="162.16" y="37.64">ち</tspan><tspan class="cls-15" x="189.84" y="37.64">ら</tspan></text></g></g></svg>