<?xml version="1.0" encoding="UTF-8"?><svg id="_レイヤー_2" xmlns="http://www.w3.org/2000/svg" viewBox="0 0 80 80"><defs><style>.cls-1{fill:#fff;}.cls-2{fill:#514977;}.cls-3{fill:none;stroke:#514977;stroke-miterlimit:10;stroke-width:6.67px;}</style></defs><g id="img"><g><g><rect class="cls-1" x="2.67" y="2.67" width="74.67" height="74.67" rx="10.67" ry="10.67"/><path class="cls-2" d="m66.67,5.33c4.41,0,8,3.59,8,8v53.33c0,4.41-3.59,8-8,8H13.33c-4.41,0-8-3.59-8-8V13.33c0-4.41,3.59-8,8-8h53.33m0-5.33H13.33C6,0,0,6,0,13.33v53.33c0,7.33,6,13.33,13.33,13.33h53.33c7.33,0,13.33-6,13.33-13.33V13.33c0-7.33-6-13.33-13.33-13.33h0Z"/></g><polyline class="cls-3" points="22.73 48.64 40 31.36 57.27 48.64"/></g></g></svg>