<?xml version="1.0" encoding="UTF-8"?><svg id="_レイヤー_2" xmlns="http://www.w3.org/2000/svg" viewBox="0 0 480 120"><defs><style>.cls-1{font-family:KozGoPr6N-Bold-83pv-RKSJ-H, 'Kozuka Gothic Pr6N';font-size:27px;font-weight:700;}.cls-1,.cls-2{fill:#514977;}.cls-3{fill:none;stroke:#514977;stroke-miterlimit:10;stroke-width:3px;}.cls-4{letter-spacing:.05em;}.cls-5{letter-spacing:.1em;}.cls-6{letter-spacing:.04em;}.cls-7{fill:#fff;}.cls-8{letter-spacing:.11em;}.cls-9{letter-spacing:.11em;}.cls-10{letter-spacing:.13em;}.cls-11{letter-spacing:.11em;}.cls-12{letter-spacing:.12em;}.cls-13{letter-spacing:.13em;}.cls-14{letter-spacing:.11em;}.cls-15{letter-spacing:.05em;}</style></defs><g id="img"><g><g><g><rect class="cls-7" width="480" height="120" rx="9.19" ry="9.19"/><path class="cls-2" d="m470.81,3c3.41,0,6.19,2.77,6.19,6.19v101.63c0,3.41-2.77,6.19-6.19,6.19H9.19c-3.41,0-6.19-2.77-6.19-6.19V9.19c0-3.41,2.77-6.19,6.19-6.19h461.63m0-3H9.19C4.13,0,0,4.13,0,9.19v101.63c0,5.05,4.13,9.19,9.19,9.19h461.63c5.05,0,9.19-4.13,9.19-9.19V9.19c0-5.05-4.13-9.19-9.19-9.19h0Z"/></g><polyline class="cls-3" points="460.47 53.96 447.52 66.91 434.56 53.96"/></g><text class="cls-1" transform="translate(170.62 54.49)"><tspan class="cls-10" x="0" y="0">ご</tspan><tspan class="cls-13" x="30.56" y="0">注</tspan><tspan class="cls-8" x="60.98" y="0">文</tspan><tspan class="cls-15" x="91.06" y="0">か</tspan><tspan class="cls-12" x="119.46" y="0">ら</tspan><tspan class="cls-5" x="-28.34" y="37.64">納</tspan><tspan class="cls-6" x="1.38" y="37.64">品</tspan><tspan class="cls-4" x="29.56" y="37.64">ま</tspan><tspan class="cls-9" x="57.93" y="37.64">で</tspan><tspan class="cls-11" x="88.01" y="37.64">の</tspan><tspan class="cls-14" x="117.93" y="37.64">流</tspan><tspan class="cls-12" x="147.8" y="37.64">れ</tspan></text></g></g></svg>